<svg xmlns="http://www.w3.org/2000/svg" width="800" height="450" viewBox="0 0 800 450" font-family="-apple-system, BlinkMacSystemFont, 'Segoe UI', Roboto, sans-serif">
  <rect width="800" height="450" fill="#0d1117"/>
  <rect x="24" y="24" width="752" height="402" rx="12" fill="#161b22" stroke="#2a313c"/>
  <!-- header -->
  <rect x="24" y="24" width="752" height="52" rx="12" fill="#1c2230"/>
  <rect x="24" y="64" width="752" height="12" fill="#1c2230"/>
  <line x1="24" y1="76" x2="776" y2="76" stroke="#2a313c"/>
  <rect x="44" y="40" width="20" height="20" rx="6" fill="#4c8dff"/>
  <text x="72" y="55" fill="#e6edf3" font-size="15" font-weight="700">Lumen</text>
  <text x="700" y="55" fill="#9aa7b4" font-size="12" text-anchor="end">Articles</text>
  <!-- hero -->
  <text x="52" y="150" fill="#4c8dff" font-size="11" letter-spacing="2">THE LUMEN REVIEW</text>
  <text x="52" y="188" fill="#e6edf3" font-size="30" font-weight="700">Writing on craft,</text>
  <text x="52" y="224" fill="#e6edf3" font-size="30" font-weight="700">systems &amp; the work.</text>
  <!-- cards -->
  <g>
    <rect x="52" y="262" width="215" height="140" rx="10" fill="#12161d" stroke="#2a313c"/>
    <rect x="68" y="278" width="183" height="66" rx="6" fill="url(#g)"/>
    <rect x="68" y="356" width="120" height="9" rx="4" fill="#4c8dff" opacity="0.5"/>
    <rect x="68" y="374" width="150" height="7" rx="3" fill="#2a313c"/>
    <rect x="288" y="262" width="215" height="140" rx="10" fill="#12161d" stroke="#2a313c"/>
    <rect x="304" y="278" width="183" height="66" rx="6" fill="url(#g2)"/>
    <rect x="304" y="356" width="140" height="9" rx="4" fill="#4c8dff" opacity="0.5"/>
    <rect x="304" y="374" width="120" height="7" rx="3" fill="#2a313c"/>
    <rect x="524" y="262" width="215" height="140" rx="10" fill="#12161d" stroke="#2a313c"/>
    <rect x="540" y="278" width="183" height="66" rx="6" fill="url(#g3)"/>
    <rect x="540" y="356" width="110" height="9" rx="4" fill="#4c8dff" opacity="0.5"/>
    <rect x="540" y="374" width="150" height="7" rx="3" fill="#2a313c"/>
  </g>
  <defs>
    <linearGradient id="g" x1="0" y1="0" x2="1" y2="1"><stop offset="0" stop-color="#4c8dff" stop-opacity="0.4"/><stop offset="1" stop-color="#2dd4bf" stop-opacity="0.2"/></linearGradient>
    <linearGradient id="g2" x1="0" y1="0" x2="1" y2="1"><stop offset="0" stop-color="#7b5cff" stop-opacity="0.4"/><stop offset="1" stop-color="#4c8dff" stop-opacity="0.2"/></linearGradient>
    <linearGradient id="g3" x1="0" y1="0" x2="1" y2="1"><stop offset="0" stop-color="#f5b544" stop-opacity="0.35"/><stop offset="1" stop-color="#4c8dff" stop-opacity="0.2"/></linearGradient>
  </defs>
</svg>
