<svg width="800" height="450" viewBox="0 0 800 450" xmlns="http://www.w3.org/2000/svg" font-family="-apple-system, BlinkMacSystemFont, 'Segoe UI', Roboto, sans-serif">
  <rect width="800" height="450" fill="#12161d"/>
  <rect x="24" y="24" width="752" height="402" rx="12" fill="#161b22" stroke="#2a313c"/>

  <rect x="24" y="24" width="752" height="52" rx="12" fill="#1c2230"/>
  <rect x="24" y="64" width="752" height="12" fill="#1c2230"/>
  <line x1="24" y1="76" x2="776" y2="76" stroke="#2a313c"/>

  <g fill="#e6edf3" font-size="14">
    <rect x="44" y="38" width="30" height="24" rx="6" fill="#232b38"/><text x="59" y="55" text-anchor="middle" font-weight="700">B</text>
    <rect x="80" y="38" width="30" height="24" rx="6" fill="#232b38"/><text x="95" y="55" text-anchor="middle" font-style="italic">i</text>
    <rect x="116" y="38" width="30" height="24" rx="6" fill="#232b38"/><text x="131" y="55" text-anchor="middle" text-decoration="underline">U</text>
    <line x1="158" y1="40" x2="158" y2="60" stroke="#2a313c"/>
    <rect x="170" y="38" width="34" height="24" rx="6" fill="#232b38"/><text x="187" y="55" text-anchor="middle">H1</text>
    <rect x="210" y="38" width="34" height="24" rx="6" fill="#232b38"/><text x="227" y="55" text-anchor="middle">H2</text>
    <rect x="250" y="38" width="30" height="24" rx="6" fill="#232b38"/><text x="265" y="55" text-anchor="middle">&#10077;</text>
    <rect x="286" y="38" width="64" height="24" rx="6" fill="#232b38"/><text x="318" y="55" text-anchor="middle">&#8226; List</text>
    <line x1="362" y1="40" x2="362" y2="60" stroke="#2a313c"/>
  </g>
  <rect x="374" y="38" width="82" height="24" rx="6" fill="rgba(76,141,255,0.16)" stroke="#4c8dff"/><text x="415" y="55" text-anchor="middle" fill="#4c8dff" font-size="13">+ Entry</text>
  <rect x="462" y="38" width="82" height="24" rx="6" fill="rgba(76,141,255,0.16)" stroke="#4c8dff"/><text x="503" y="55" text-anchor="middle" fill="#4c8dff" font-size="13">+ Asset</text>

  <text x="52" y="132" fill="#e6edf3" font-size="27" font-weight="600">Designing a content model</text>
  <text x="52" y="170" fill="#9aa7b4" font-size="16">The fields you pick on day one quietly decide</text>
  <text x="52" y="196" fill="#9aa7b4" font-size="16">how painful year two will be.</text>

  <text x="52" y="250" fill="#4c8dff" font-size="16" font-family="monospace">/</text>

  <rect x="66" y="238" width="236" height="150" rx="8" fill="#1c2230" stroke="#2a313c"/>
  <rect x="74" y="246" width="220" height="40" rx="6" fill="rgba(76,141,255,0.14)"/>
  <text x="88" y="271" fill="#e6edf3" font-size="15">Heading 1</text><text x="278" y="271" text-anchor="end" fill="#9aa7b4" font-size="13">H1</text>
  <text x="88" y="315" fill="#e6edf3" font-size="15">Quote</text><text x="278" y="315" text-anchor="end" fill="#9aa7b4" font-size="13">&#10077;</text>
  <text x="88" y="359" fill="#e6edf3" font-size="15">Embed entry</text><text x="278" y="359" text-anchor="end" fill="#9aa7b4" font-size="13">&#8618;</text>

  <text x="470" y="360" fill="#6b7787" font-size="13">PlateJS &#183; Contentful Rich Text</text>
</svg>
